<svg xmlns="http://www.w3.org/2000/svg" viewBox="0 0 500 500"><circle cx="250" cy="250" r="250" style="fill:#3cb47e"/><path d="M245.33,351.74A13.32,13.32,0,0,1,232,365.05H204a13.3,13.3,0,0,1-13.3-13.31V345.6A13.29,13.29,0,0,1,204,332.3h28a13.31,13.31,0,0,1,13.31,13.3Z" transform="translate(-0.5)" style="fill:#fff"/><path d="M123.49,300h-2.34a13.31,13.31,0,0,0-13.3,13.3V331.7c0,7.35,3.42,13.31,9.29,13.31h1.47c6.34,0,4.88,5.95,4.88,13.31v8.61a13.32,13.32,0,0,0,13.3,13.31h20.34a13.32,13.32,0,0,0,13.31-13.31V313.32A13.31,13.31,0,0,0,157.13,300Z" transform="translate(-0.5)" style="fill:#fff"/><path d="M288.75,188a13.3,13.3,0,0,0-13,10.49l-7.43,34.28a13.3,13.3,0,0,1-13,10.49H172a13.31,13.31,0,0,0-13.3,13.3v10.08A13.31,13.31,0,0,0,172,280h2.74A13.31,13.31,0,0,1,188,293.28v6.63a13.31,13.31,0,0,0,13.3,13.3H304.49a13.31,13.31,0,0,0,13-10.47L339,204.17A13.31,13.31,0,0,0,326,188Z" transform="translate(-0.5)" style="fill:#fff"/><path d="M370.79,159.15a13.3,13.3,0,0,1-13.08,10.79H299.86a13.31,13.31,0,0,1-13.07-15.8l8.36-43.81a13.31,13.31,0,0,1,13.07-10.81h57.86a13.32,13.32,0,0,1,13.07,15.82Z" transform="translate(-0.5)" style="fill:#fff"/></svg>